<svg version="1.1" id="Layer_1" xmlns="http://www.w3.org/2000/svg" xmlns:xlink="http://www.w3.org/1999/xlink" x="0px" y="0px"
	 width="100%" viewBox="0 0 246 246" enable-background="new 0 0 246 246" xml:space="preserve">
<path fill="#FDFDFD" opacity="1.000000" stroke="none" 
	d="
M1.000000,120.000000 
	C1.000000,80.000008 1.000000,40.500015 1.000000,1.000016 
	C82.999977,1.000011 164.999954,1.000011 246.999954,1.000005 
	C246.999969,82.999962 246.999969,164.999924 246.999985,246.999908 
	C165.000046,246.999939 83.000099,246.999939 1.000077,246.999969 
	C1.000000,204.833328 1.000000,162.666672 1.000000,120.000000 
M181.631592,193.500732 
	C174.941879,189.524033 168.580154,191.111389 165.973328,197.407730 
	C164.121918,201.879486 165.250412,207.184616 168.680878,210.136200 
	C172.236588,213.195557 176.727448,213.137558 182.541290,210.002441 
	C182.955933,210.010056 183.370590,210.017670 184.031479,210.842621 
	C191.371674,214.103104 198.449051,212.379807 198.189987,207.394424 
	C195.532196,207.013382 192.874405,206.632324 190.216614,206.251282 
	C197.631348,202.108231 197.631348,202.108231 197.197800,199.387268 
	C194.780380,199.146362 192.362961,198.905441 189.104065,198.580658 
	C192.170609,195.573776 199.518143,199.782318 197.239075,191.205063 
	C192.680969,191.816345 188.244141,192.411362 183.385864,193.204697 
	C182.991364,193.450821 182.596863,193.696960 181.631592,193.500732 
M75.459381,194.176651 
	C74.683533,194.103745 73.907692,194.030853 72.503014,193.585846 
	C67.792366,190.237808 62.752247,191.998840 57.712120,192.024124 
	C57.712120,198.923157 57.712120,205.206772 57.712120,211.732773 
	C59.701111,211.732773 61.442303,211.732773 63.346100,211.732773 
	C63.565018,209.497040 63.758274,207.523407 64.064453,204.396545 
	C67.740433,207.715958 67.950287,214.125092 74.775070,212.004013 
	C75.314156,211.930664 75.853233,211.857315 77.267616,211.913010 
	C80.416588,211.978180 83.577675,211.893433 86.711464,212.146606 
	C90.598053,212.460571 91.087509,210.460999 90.644348,207.429245 
	C87.734726,207.004288 85.125954,206.623260 82.517174,206.242249 
	C82.565437,205.693909 82.613701,205.145569 82.661964,204.597229 
	C84.864128,204.383865 87.066292,204.170486 89.605606,203.924438 
	C89.605606,202.273239 89.605606,200.771790 89.605606,199.315979 
	C87.002541,199.054230 84.744713,198.827194 82.486893,198.600159 
	C82.481056,198.114014 82.475220,197.627853 82.469391,197.141708 
	C83.587555,196.908203 84.696472,196.563202 85.826233,196.469406 
	C87.239540,196.352051 88.669998,196.441177 90.091164,196.441177 
	C90.067032,191.801727 90.067635,191.772446 86.433113,191.697571 
	C83.947250,191.646362 81.427734,191.460815 78.986801,191.796860 
	C77.889114,191.947983 76.946640,193.226517 75.459381,194.176651 
M107.998436,54.807461 
	C106.998772,56.694378 106.087929,58.634922 104.985947,60.460060 
	C91.399742,82.962006 93.618576,107.523590 110.534782,130.659714 
	C98.767845,143.622055 85.035156,153.800812 67.769325,157.737610 
	C51.213127,161.512589 38.826714,151.839722 37.093159,134.889465 
	C36.370777,127.826210 37.699402,121.175446 42.040737,115.501793 
	C44.854851,111.824051 48.480125,108.770531 51.336788,105.120239 
	C52.678570,103.405693 53.064774,100.943321 53.884018,98.819839 
	C51.588078,98.872688 49.245720,98.668907 47.013252,99.072678 
	C45.629238,99.322990 44.338997,100.394684 43.131062,101.269455 
	C28.568014,111.815910 23.204630,126.406158 25.681332,143.724457 
	C29.316765,169.145172 51.327599,183.606812 77.773285,177.380920 
	C110.411789,169.697098 133.790497,149.128891 151.258408,121.324860 
	C157.885239,110.776833 160.897720,99.036316 159.937302,86.494179 
	C159.232162,77.285812 156.438599,68.761765 150.733002,59.780479 
	C144.458893,65.741463 138.562622,70.831673 133.380127,76.566895 
	C131.741379,78.380432 131.186157,82.035675 131.558777,84.644745 
	C132.745834,92.956711 132.602020,100.887848 127.539238,107.705818 
	C120.776680,92.647072 123.540771,79.062164 134.308411,67.031128 
	C145.139160,54.929569 158.324326,45.870090 173.310257,39.812317 
	C180.455841,36.923862 188.155731,34.667343 195.784058,33.892948 
	C206.143982,32.841244 211.446487,39.219349 209.437714,49.503296 
	C208.338013,55.133270 206.675171,61.074081 203.628052,65.823746 
	C194.566696,79.948044 184.625122,93.505371 175.235214,107.424377 
	C174.198578,108.961014 174.503525,111.402718 174.186249,113.424652 
	C176.220947,112.993599 178.637924,113.110107 180.208237,112.013855 
	C183.184509,109.936073 185.696091,107.184998 188.364227,104.674858 
	C201.746109,92.085464 214.374847,78.865158 223.473541,62.691242 
	C231.228882,48.905247 230.477875,34.664227 221.263840,24.017939 
	C213.848099,15.449473 203.887039,12.376255 193.075287,12.360161 
	C170.702026,12.326857 150.735092,20.068388 132.295578,32.290760 
	C130.681076,33.360916 128.837997,34.086227 126.745132,34.388050 
	C116.016068,28.781288 105.681816,22.148220 94.457031,17.830072 
	C80.726204,12.547858 66.154221,10.128322 51.359928,14.036426 
	C35.881592,18.125231 26.842506,30.715578 27.749622,46.680939 
	C28.210781,54.797386 31.833652,61.698498 36.114925,68.314751 
	C46.434605,84.262711 59.802948,97.489426 73.848824,110.064629 
	C76.031868,112.019089 78.132072,116.772377 81.854309,113.381767 
	C85.597038,109.972496 80.962761,107.571236 79.294273,105.112366 
	C70.424820,92.041313 61.163994,79.228516 52.563290,65.985580 
	C48.464657,59.674721 46.179298,52.442486 46.731728,44.637276 
	C47.188068,38.189617 50.508484,34.119373 56.964832,33.949593 
	C62.192436,33.812122 67.641525,34.421082 72.668877,35.842857 
	C85.622192,39.506165 97.049500,46.390793 107.998436,54.807461 
M147.153275,135.327835 
	C142.133179,141.209274 137.113083,147.090698 132.106369,152.956451 
	C146.049301,165.450821 162.403076,174.102829 178.268997,177.495728 
	C198.706635,181.866302 215.323090,175.403427 225.088120,159.366211 
	C239.975372,134.916687 226.856369,107.294586 209.159729,99.081985 
	C207.243469,98.192688 204.599747,98.870895 202.293472,98.822006 
	C203.118484,100.943954 203.520798,103.389458 204.849777,105.125633 
	C208.468414,109.852974 213.400284,113.789505 216.139297,118.930450 
	C221.596146,129.172653 220.179916,139.650223 213.835007,149.214249 
	C207.995865,158.015900 199.122009,159.433182 189.491913,157.952606 
	C186.397659,157.476913 183.058350,156.873962 180.443756,155.307022 
	C170.773972,149.511887 161.364883,143.282181 151.844940,137.236053 
	C150.518173,136.393417 149.119507,135.663971 147.153275,135.327835 
M151.680664,191.656250 
	C150.228683,191.774048 148.776703,191.891830 147.291901,192.012299 
	C147.291901,198.768906 147.291901,205.181702 147.291901,211.659866 
	C149.324875,211.659866 151.040634,211.659866 152.711731,211.659866 
	C152.987747,209.317307 153.218948,207.355164 153.544662,204.590805 
	C157.433945,207.326126 157.082993,215.069168 163.737808,211.313156 
	C161.926804,205.978195 161.926773,205.978180 163.643555,200.048080 
	C164.702957,196.388733 162.804169,192.856110 158.992706,192.018280 
	C156.916321,191.561859 154.698563,191.748672 151.680664,191.656250 
M124.111404,206.266068 
	C125.740028,200.169571 124.569603,195.598175 120.476440,192.940353 
	C116.616753,190.434143 112.560478,190.353104 108.801537,193.055252 
	C104.666924,196.027451 103.671715,200.305084 104.948883,205.039856 
	C106.034500,209.064438 108.730553,211.620850 112.959160,212.262405 
	C117.761269,212.990982 121.403244,211.223938 124.111404,206.266068 
M131.598785,212.026810 
	C133.573700,212.161301 135.557953,212.484390 137.521423,212.387268 
	C140.675491,212.231323 143.755142,211.356522 143.962402,207.559067 
	C144.240448,202.464584 144.031281,197.343521 144.031281,192.160797 
	C142.322784,192.160797 140.608078,192.160797 138.619049,192.160797 
	C138.619049,195.979630 138.889618,199.475983 138.500565,202.897354 
	C138.316513,204.515869 136.870056,205.990829 135.995575,207.530838 
	C134.943420,205.980820 133.202560,204.522400 132.981705,202.861816 
	C132.513947,199.344803 132.839127,195.722321 132.839127,192.030258 
	C130.635391,192.030258 129.039871,192.030258 127.203156,192.030258 
	C127.203156,197.360031 126.930542,202.484604 127.369102,207.547562 
	C127.500847,209.068451 129.613510,210.417725 131.598785,212.026810 
M99.223808,198.362213 
	C100.126900,197.046509 101.029991,195.730789 102.023331,194.283600 
	C101.315155,190.718063 99.045563,190.695206 96.236702,192.311081 
	C92.828239,194.271835 91.238525,197.317810 93.814728,200.534821 
	C96.807465,204.271973 97.056259,206.760956 92.313156,208.477142 
	C93.580902,213.378052 96.250946,213.107864 99.431160,210.956726 
	C103.642014,208.108475 103.669426,204.953583 99.223808,198.362213 
z"/>
<path fill="#65A672" opacity="1.000000" stroke="none" 
	d="
M110.858009,130.105103 
	C93.618576,107.523590 91.399742,82.962006 104.985947,60.460060 
	C106.087929,58.634922 106.998772,56.694378 108.327347,54.370117 
	C114.804527,47.612415 120.952812,41.292065 127.101089,34.971710 
	C128.837997,34.086227 130.681076,33.360916 132.295578,32.290760 
	C150.735092,20.068388 170.702026,12.326857 193.075287,12.360161 
	C203.887039,12.376255 213.848099,15.449473 221.263840,24.017939 
	C230.477875,34.664227 231.228882,48.905247 223.473541,62.691242 
	C214.374847,78.865158 201.746109,92.085464 188.364227,104.674858 
	C185.696091,107.184998 183.184509,109.936073 180.208237,112.013855 
	C178.637924,113.110107 176.220947,112.993599 174.186249,113.424652 
	C174.503525,111.402718 174.198578,108.961014 175.235214,107.424377 
	C184.625122,93.505371 194.566696,79.948044 203.628052,65.823746 
	C206.675171,61.074081 208.338013,55.133270 209.437714,49.503296 
	C211.446487,39.219349 206.143982,32.841244 195.784058,33.892948 
	C188.155731,34.667343 180.455841,36.923862 173.310257,39.812317 
	C158.324326,45.870090 145.139160,54.929569 134.308411,67.031128 
	C123.540771,79.062164 120.776680,92.647072 127.740402,108.321289 
	C124.146561,117.525848 118.146965,124.335754 110.858009,130.105103 
z"/>
<path fill="#45858D" opacity="1.000000" stroke="none" 
	d="
M110.696396,130.382416 
	C118.146965,124.335754 124.146561,117.525848 127.992203,108.600098 
	C132.602020,100.887848 132.745834,92.956711 131.558777,84.644745 
	C131.186157,82.035675 131.741379,78.380432 133.380127,76.566895 
	C138.562622,70.831673 144.458893,65.741463 150.733002,59.780479 
	C156.438599,68.761765 159.232162,77.285812 159.937302,86.494179 
	C160.897720,99.036316 157.885239,110.776833 151.258408,121.324860 
	C133.790497,149.128891 110.411789,169.697098 77.773285,177.380920 
	C51.327599,183.606812 29.316765,169.145172 25.681332,143.724457 
	C23.204630,126.406158 28.568014,111.815910 43.131062,101.269455 
	C44.338997,100.394684 45.629238,99.322990 47.013252,99.072678 
	C49.245720,98.668907 51.588078,98.872688 53.884018,98.819839 
	C53.064774,100.943321 52.678570,103.405693 51.336788,105.120239 
	C48.480125,108.770531 44.854851,111.824051 42.040737,115.501793 
	C37.699402,121.175446 36.370777,127.826210 37.093159,134.889465 
	C38.826714,151.839722 51.213127,161.512589 67.769325,157.737610 
	C85.035156,153.800812 98.767845,143.622055 110.696396,130.382416 
z"/>
<path fill="#46858D" opacity="1.000000" stroke="none" 
	d="
M126.923111,34.679878 
	C120.952812,41.292065 114.804527,47.612415 108.325638,54.008987 
	C97.049500,46.390793 85.622192,39.506165 72.668877,35.842857 
	C67.641525,34.421082 62.192436,33.812122 56.964832,33.949593 
	C50.508484,34.119373 47.188068,38.189617 46.731728,44.637276 
	C46.179298,52.442486 48.464657,59.674721 52.563290,65.985580 
	C61.163994,79.228516 70.424820,92.041313 79.294273,105.112366 
	C80.962761,107.571236 85.597038,109.972496 81.854309,113.381767 
	C78.132072,116.772377 76.031868,112.019089 73.848824,110.064629 
	C59.802948,97.489426 46.434605,84.262711 36.114925,68.314751 
	C31.833652,61.698498 28.210781,54.797386 27.749622,46.680939 
	C26.842506,30.715578 35.881592,18.125231 51.359928,14.036426 
	C66.154221,10.128322 80.726204,12.547858 94.457031,17.830072 
	C105.681816,22.148220 116.016068,28.781288 126.923111,34.679878 
z"/>
<path fill="#67A673" opacity="1.000000" stroke="none" 
	d="
M147.453705,135.104980 
	C149.119507,135.663971 150.518173,136.393417 151.844940,137.236053 
	C161.364883,143.282181 170.773972,149.511887 180.443756,155.307022 
	C183.058350,156.873962 186.397659,157.476913 189.491913,157.952606 
	C199.122009,159.433182 207.995865,158.015900 213.835007,149.214249 
	C220.179916,139.650223 221.596146,129.172653 216.139297,118.930450 
	C213.400284,113.789505 208.468414,109.852974 204.849777,105.125633 
	C203.520798,103.389458 203.118484,100.943954 202.293472,98.822006 
	C204.599747,98.870895 207.243469,98.192688 209.159729,99.081985 
	C226.856369,107.294586 239.975372,134.916687 225.088120,159.366211 
	C215.323090,175.403427 198.706635,181.866302 178.268997,177.495728 
	C162.403076,174.102829 146.049301,165.450821 132.106369,152.956451 
	C137.113083,147.090698 142.133179,141.209274 147.453705,135.104980 
z"/>
<path fill="#555555" opacity="1.000000" stroke="none" 
	d="
M152.112610,191.650818 
	C154.698563,191.748672 156.916321,191.561859 158.992706,192.018280 
	C162.804169,192.856110 164.702957,196.388733 163.643555,200.048080 
	C161.926773,205.978180 161.926804,205.978195 163.737808,211.313156 
	C157.082993,215.069168 157.433945,207.326126 153.544662,204.590805 
	C153.218948,207.355164 152.987747,209.317307 152.711731,211.659866 
	C151.040634,211.659866 149.324875,211.659866 147.291901,211.659866 
	C147.291901,205.181702 147.291901,198.768906 147.291901,192.012299 
	C148.776703,191.891830 150.228683,191.774048 152.112610,191.650818 
z"/>
<path fill="#4F4F4F" opacity="1.000000" stroke="none" 
	d="
M123.966721,206.627838 
	C121.403244,211.223938 117.761269,212.990982 112.959160,212.262405 
	C108.730553,211.620850 106.034500,209.064438 104.948883,205.039856 
	C103.671715,200.305084 104.666924,196.027451 108.801537,193.055252 
	C112.560478,190.353104 116.616753,190.434143 120.476440,192.940353 
	C124.569603,195.598175 125.740028,200.169571 123.966721,206.627838 
M119.200188,200.073929 
	C117.432892,198.969650 115.701447,197.111740 113.885750,197.025360 
	C112.670494,196.967575 110.631790,199.233810 110.204132,200.799469 
	C109.374023,203.838470 110.699448,206.615784 114.160423,206.854538 
	C118.121033,207.127762 119.571281,204.484467 119.200188,200.073929 
z"/>
<path fill="#4E4E4E" opacity="1.000000" stroke="none" 
	d="
M131.208740,211.936218 
	C129.613510,210.417725 127.500847,209.068451 127.369102,207.547562 
	C126.930542,202.484604 127.203156,197.360031 127.203156,192.030258 
	C129.039871,192.030258 130.635391,192.030258 132.839127,192.030258 
	C132.839127,195.722321 132.513947,199.344803 132.981705,202.861816 
	C133.202560,204.522400 134.943420,205.980820 135.995575,207.530838 
	C136.870056,205.990829 138.316513,204.515869 138.500565,202.897354 
	C138.889618,199.475983 138.619049,195.979630 138.619049,192.160797 
	C140.608078,192.160797 142.322784,192.160797 144.031281,192.160797 
	C144.031281,197.343521 144.240448,202.464584 143.962402,207.559067 
	C143.755142,211.356522 140.675491,212.231323 137.521423,212.387268 
	C135.557953,212.484390 133.573700,212.161301 131.208740,211.936218 
z"/>
<path fill="#4E4E4E" opacity="1.000000" stroke="none" 
	d="
M73.959129,211.979706 
	C67.950287,214.125092 67.740433,207.715958 64.064453,204.396545 
	C63.758274,207.523407 63.565018,209.497040 63.346100,211.732773 
	C61.442303,211.732773 59.701111,211.732773 57.712120,211.732773 
	C57.712120,205.206772 57.712120,198.923157 57.712120,192.024124 
	C62.752247,191.998840 67.792366,190.237808 72.834534,194.228027 
	C73.323204,200.578339 71.008430,206.401062 73.959129,211.979706 
M63.063126,199.066254 
	C64.202843,199.780396 65.279205,200.816055 66.511772,201.058914 
	C67.044823,201.163940 68.566460,199.519608 68.456535,198.870010 
	C68.282616,197.842224 67.031418,196.165573 66.384079,196.230865 
	C65.218376,196.348419 64.162239,197.552368 63.063126,199.066254 
z"/>
<path fill="#525252" opacity="1.000000" stroke="none" 
	d="
M75.933746,193.993500 
	C76.946640,193.226517 77.889114,191.947983 78.986801,191.796860 
	C81.427734,191.460815 83.947250,191.646362 86.433113,191.697571 
	C90.067635,191.772446 90.067032,191.801727 90.091164,196.441177 
	C88.669998,196.441177 87.239540,196.352051 85.826233,196.469406 
	C84.696472,196.563202 83.587555,196.908203 82.469391,197.141708 
	C82.475220,197.627853 82.481056,198.114014 82.486893,198.600159 
	C84.744713,198.827194 87.002541,199.054230 89.605606,199.315979 
	C89.605606,200.771790 89.605606,202.273239 89.605606,203.924438 
	C87.066292,204.170486 84.864128,204.383865 82.661964,204.597229 
	C82.613701,205.145569 82.565437,205.693909 82.517174,206.242249 
	C85.125954,206.623260 87.734726,207.004288 90.644348,207.429245 
	C91.087509,210.460999 90.598053,212.460571 86.711464,212.146606 
	C83.577675,211.893433 80.416588,211.978180 76.784927,211.397522 
	C76.179398,205.252518 76.056572,199.623001 75.933746,193.993500 
z"/>
<path fill="#4F4F4F" opacity="1.000000" stroke="none" 
	d="
M183.807312,193.006393 
	C188.244141,192.411362 192.680969,191.816345 197.239075,191.205063 
	C199.518143,199.782318 192.170609,195.573776 189.104065,198.580658 
	C192.362961,198.905441 194.780380,199.146362 197.196533,199.393936 
	C197.631348,202.108231 197.631348,202.108231 190.216614,206.251282 
	C192.874405,206.632324 195.532196,207.013382 198.189926,207.394775 
	C198.449051,212.379807 191.371674,214.103104 184.009796,209.974228 
	C183.927841,203.739349 183.867584,198.372879 183.807312,193.006393 
z"/>
<path fill="#525252" opacity="1.000000" stroke="none" 
	d="
M181.920197,209.965149 
	C176.727448,213.137558 172.236588,213.195557 168.680878,210.136200 
	C165.250412,207.184616 164.121918,201.879486 165.973328,197.407730 
	C168.580154,191.111389 174.941879,189.524033 181.906830,194.123779 
	C181.561249,195.966034 180.940445,197.185242 180.319626,198.404449 
	C180.074493,197.945358 179.829346,197.486267 179.584198,197.027176 
	C177.090530,197.416229 173.943893,197.048248 172.321564,198.447540 
	C171.144333,199.462921 171.080673,204.145126 172.116302,204.850967 
	C174.209976,206.277985 177.388550,206.113235 181.214417,206.801971 
	C181.250931,206.965637 181.585571,208.465393 181.920197,209.965149 
z"/>
<path fill="#575757" opacity="1.000000" stroke="none" 
	d="
M99.408638,198.732574 
	C103.669426,204.953583 103.642014,208.108475 99.431160,210.956726 
	C96.250946,213.107864 93.580902,213.378052 92.313156,208.477142 
	C97.056259,206.760956 96.807465,204.271973 93.814728,200.534821 
	C91.238525,197.317810 92.828239,194.271835 96.236702,192.311081 
	C99.045563,190.695206 101.315155,190.718063 102.023331,194.283600 
	C101.029991,195.730789 100.126900,197.046509 99.408638,198.732574 
z"/>
<path fill="#EDEDED" opacity="1.000000" stroke="none" 
	d="
M182.230743,209.983795 
	C181.585571,208.465393 181.250931,206.965637 181.214417,206.801971 
	C177.388550,206.113235 174.209976,206.277985 172.116302,204.850967 
	C171.080673,204.145126 171.144333,199.462921 172.321564,198.447540 
	C173.943893,197.048248 177.090530,197.416229 179.584198,197.027176 
	C179.829346,197.486267 180.074493,197.945358 180.319626,198.404449 
	C180.940445,197.185242 181.561249,195.966034 182.192215,194.344971 
	C182.596863,193.696960 182.991364,193.450821 183.596588,193.105545 
	C183.867584,198.372879 183.927841,203.739349 183.886658,209.565552 
	C183.370590,210.017670 182.955933,210.010056 182.230743,209.983795 
z"/>
<path fill="#E0E0E0" opacity="1.000000" stroke="none" 
	d="
M75.696564,194.085083 
	C76.056572,199.623001 76.179398,205.252518 76.347275,211.332977 
	C75.853233,211.857315 75.314156,211.930664 74.367096,211.991852 
	C71.008430,206.401062 73.323204,200.578339 73.148949,194.414078 
	C73.907692,194.030853 74.683533,194.103745 75.696564,194.085083 
z"/>
<path fill="#EBEBEB" opacity="1.000000" stroke="none" 
	d="
M119.302177,200.435715 
	C119.571281,204.484467 118.121033,207.127762 114.160423,206.854538 
	C110.699448,206.615784 109.374023,203.838470 110.204132,200.799469 
	C110.631790,199.233810 112.670494,196.967575 113.885750,197.025360 
	C115.701447,197.111740 117.432892,198.969650 119.302177,200.435715 
z"/>
<path fill="#DEDEDE" opacity="1.000000" stroke="none" 
	d="
M63.061729,198.684372 
	C64.162239,197.552368 65.218376,196.348419 66.384079,196.230865 
	C67.031418,196.165573 68.282616,197.842224 68.456535,198.870010 
	C68.566460,199.519608 67.044823,201.163940 66.511772,201.058914 
	C65.279205,200.816055 64.202843,199.780396 63.061729,198.684372 
z"/>
</svg>